<svg xmlns="http://www.w3.org/2000/svg" xmlns:svg="http://www.w3.org/2000/svg" xmlns:xlink="http://www.w3.org/1999/xlink" id="svg1" width="500mm" height="500mm" version="1.1" viewBox="0 0 500 500" xml:space="preserve"><defs id="defs1"><marker id="DistanceX" orient="auto" refX="0" refY="0" style="overflow:visible"><path d="M 3,-3 L -3,3 M 0,-5 L 0,5" style="stroke:#000;stroke-width:.5" id="path1-0"/></marker><pattern id="Hatch" width="8" height="8" x="0" y="0" patternUnits="userSpaceOnUse"><path id="path2-9" stroke="#000" stroke-width=".25" d="M8 4 l-4,4" linecap="square"/><path id="path3" stroke="#000" stroke-width=".25" d="M6 2 l-4,4" linecap="square"/><path id="path4" stroke="#000" stroke-width=".25" d="M4 0 l-4,4" linecap="square"/></pattern></defs><metadata id="metadata1"/><circle style="fill:none;stroke-width:.264583;stroke:#000;stroke-opacity:1" id="path1" cx="250" cy="250" r="100"/><circle style="fill:none;stroke-width:.264583;stroke:#000;stroke-opacity:1" id="path2" cx="250" cy="250" r="5"/><g id="g2" transform="matrix(0.26458333,0,0,0.26458333,-47.490911,-124.26658)" style="fill:none;stroke:#000;stroke-opacity:1"><rect style="fill:none;stroke:#000;stroke-width:1.04447;stroke-opacity:1" id="rect2" width="11.339" height="45.354" x="1218.864" y="1316.284"/><rect style="fill:none;stroke:#000;stroke-width:1.04447;stroke-opacity:1" id="rect2-7" width="11.339" height="45.354" x="1018.549" y="1316.284"/><use id="use8" x="0" y="0" transform="translate(83.149573,5.8224652e-5)" xlink:href="#rect2" style="fill:none;stroke:#000;stroke-opacity:1"/><use id="use9" x="0" y="0" transform="translate(-83.149554,5.8224652e-5)" xlink:href="#rect2-7" style="fill:none;stroke:#000;stroke-opacity:1"/></g><use id="use5" x="0" y="0" transform="matrix(0.5,0,0,0.5,172.5,67.5)" xlink:href="#path2" style="fill:none;stroke:#000;stroke-opacity:1"/><use id="use6" x="0" y="0" transform="matrix(0.5,0,0,0.5,82.5,67.5)" xlink:href="#path2" style="fill:none;stroke:#000;stroke-opacity:1"/><rect style="fill:none;stroke-width:.264583;stroke:#000;stroke-opacity:1" id="rect6" width="30" height="80" x="300" y="210"/><use id="use10" x="0" y="0" transform="translate(-130)" xlink:href="#rect6" style="fill:none;stroke:#000;stroke-opacity:1"/><circle style="fill:none;stroke-width:.264583;stroke:#000;stroke-opacity:1" id="path10" cx="237.5" cy="166.5" r="1.5"/><circle style="fill:none;stroke-width:.264583;stroke:#000;stroke-opacity:1" id="path10-6" cx="237.5" cy="189.5" r="1.5"/><circle style="fill:none;stroke-width:.264583;stroke:#000;stroke-opacity:1" id="path10-5" cx="265.5" cy="166.5" r="1.5"/><circle style="fill:none;stroke-width:.264583;stroke:#000;stroke-opacity:1" id="circle10" cx="265.5" cy="189.5" r="1.5"/><circle style="fill:none;stroke-width:.264583;stroke:#000;stroke-opacity:1" id="circle14" cx="237.5" cy="313.5" r="1.5"/><circle style="fill:none;stroke-width:.264583;stroke:#000;stroke-opacity:1" id="circle14-33" cx="237.5" cy="336.5" r="1.5"/><circle style="fill:none;stroke-width:.264583;stroke:#000;stroke-opacity:1" id="circle14-3" cx="265.5" cy="313.5" r="1.5"/><circle style="fill:none;stroke-width:.264583;stroke:#000;stroke-opacity:1" id="circle14-1" cx="265.5" cy="336.5" r="1.5"/><path d="m 281.15533,179.12812 v -2.50473 h -1.02304 v -3.98638 h 1.02304 v -2.50472 h 11.99445 v 2.50472 h 0.98779 v 3.98638 h -0.98779 v 2.50473 h -11.99445" style="fill:none;fill-opacity:1;stroke:#000;stroke-width:.264583;stroke-opacity:1" id="path50"/><path d="m 166.50964,131.37951 -0.0706,-0.21168 -0.0706,-0.21166 -0.10583,-0.17639 -0.1411,-0.21165 -0.14112,-0.14112 -0.17639,-0.17639 -0.17639,-0.10583 -0.21165,-0.10583 -0.21168,-0.10585 -0.21166,-0.0705 -0.21168,-0.0353 h -0.21166 -25.50583 v -2.01084 h -4.51555 l -0.17639,0.0353 -0.17639,0.0353 -0.14112,0.0706 -0.14112,0.10583 -0.1411,0.10583 -0.0706,0.14112 -0.10583,0.17639 -0.0353,0.17639 v 0.17639 14.00528 0.1411 l 0.0353,0.17639 0.10583,0.17638 0.0706,0.14112 0.1411,0.10583 0.14112,0.10583 0.14112,0.0706 0.17639,0.0353 0.17639,0.0353 h 4.51555 v -2.01084 h 25.50583 0.21166 l 0.21168,-0.0353 0.21166,-0.0706 0.21168,-0.0705 0.21165,-0.1411 0.17639,-0.10585 0.17639,-0.1411 0.14112,-0.17639 0.1411,-0.17639 0.10583,-0.21168 0.0706,-0.21166 0.0706,-0.21165 0.0353,-0.21168 v -0.24695 -7.97277 -0.24695 l -0.0353,-0.21166" style="fill:none;fill-opacity:1;stroke:#000;stroke-width:.264583;stroke-opacity:1" id="path137"/><path d="m 147.28325,136.03618 -0.0353,0.21166 -0.0706,0.21166 -0.0706,0.17639 -0.10583,0.17639 -0.14112,0.17638 -0.1411,0.14112 -0.17638,0.14112 -0.17639,0.10583 -0.17639,0.0706 -0.21168,0.0705 -0.21166,0.0353 -0.21168,0.0353 h -2.99861 l -0.21166,-0.0353 -0.21166,-0.0353 -0.21168,-0.0705 -0.17639,-0.0706 -0.17638,-0.10583 -0.17639,-0.14112 -0.1411,-0.14112 -0.14112,-0.17638 -0.10583,-0.17639 -0.0706,-0.17639 -0.0706,-0.21166 -0.0353,-0.21166 -0.0353,-0.21168 0.0353,-0.21166 0.0353,-0.21168 0.0706,-0.17638 0.0706,-0.21166 0.10583,-0.17639 0.14112,-0.17639 0.1411,-0.14112 0.17639,-0.1411 0.17638,-0.10583 0.17639,-0.0706 0.21168,-0.0706 0.21166,-0.0353 0.21166,-0.0353 h 2.99861 l 0.21168,0.0353 0.21166,0.0353 0.21168,0.0706 0.17639,0.0706 0.17639,0.10583 0.17638,0.1411 0.1411,0.14112 0.14112,0.17639 0.10583,0.17639 0.0706,0.21166 0.0706,0.17638 0.0353,0.21168 0.0353,0.21166 -0.0353,0.21168" style="fill:none;fill-opacity:1;stroke:#000;stroke-width:.264583;stroke-opacity:1" id="path138"/><path d="m 163.29937,135.8245 v 0.21168 l -0.0353,0.21166 -0.0706,0.21166 -0.10583,0.17639 -0.10583,0.17639 -0.10583,0.17638 -0.17639,0.14112 -0.14112,0.14112 -0.17639,0.10583 -0.21165,0.0706 -0.21168,0.0705 -0.21166,0.0353 -0.21166,0.0353 -0.17639,-0.0353 -0.21168,-0.0353 -0.21166,-0.0705 -0.21168,-0.0706 -0.17639,-0.10583 -0.14109,-0.14112 -0.17639,-0.14112 -0.10583,-0.17638 -0.10585,-0.17639 -0.10583,-0.17639 -0.0706,-0.21166 -0.0353,-0.21166 v -0.21168 -0.21166 l 0.0353,-0.21168 0.0706,-0.17638 0.10583,-0.21166 0.10585,-0.17639 0.10583,-0.17639 0.17639,-0.14112 0.14109,-0.1411 0.17639,-0.10583 0.21168,-0.0706 0.21166,-0.0706 0.21168,-0.0353 0.17639,-0.0353 0.21166,0.0353 0.21166,0.0353 0.21168,0.0706 0.21165,0.0706 0.17639,0.10583 0.14112,0.1411 0.17639,0.14112 0.10583,0.17639 0.10583,0.17639 0.10583,0.21166 0.0706,0.17638 0.0353,0.21168 v 0.21166" style="fill:none;fill-opacity:1;stroke:#000;stroke-width:.264583;stroke-opacity:1" id="path139"/><use id="use20" x="0" y="0" transform="translate(-0.74835462,-22.076463)" xlink:href="#path137" style="fill:none;stroke:#000;stroke-opacity:1"/><use id="use21" x="0" y="0" transform="translate(-0.74835462,-22.076463)" xlink:href="#path138" style="fill:none;stroke:#000;stroke-opacity:1"/><use id="use22" x="0" y="0" transform="translate(-0.74835462,-22.076463)" xlink:href="#path139" style="fill:none;stroke:#000;stroke-opacity:1"/><path d="m 147.28325,136.03618 -0.0353,0.21166 -0.0706,0.21166 -0.0706,0.17639 -0.10583,0.17639 -0.14112,0.17638 -0.1411,0.14112 -0.17638,0.14112 -0.17639,0.10583 -0.17639,0.0706 -0.21168,0.0705 -0.21166,0.0353 -0.21168,0.0353 h -2.99861 l -0.21166,-0.0353 -0.21166,-0.0353 -0.21168,-0.0705 -0.17639,-0.0706 -0.17638,-0.10583 -0.17639,-0.14112 -0.1411,-0.14112 -0.14112,-0.17638 -0.10583,-0.17639 -0.0706,-0.17639 -0.0706,-0.21166 -0.0353,-0.21166 -0.0353,-0.21168 0.0353,-0.21166 0.0353,-0.21168 0.0706,-0.17638 0.0706,-0.21166 0.10583,-0.17639 0.14112,-0.17639 0.1411,-0.14112 0.17639,-0.1411 0.17638,-0.10583 0.17639,-0.0706 0.21168,-0.0706 0.21166,-0.0353 0.21166,-0.0353 h 2.99861 l 0.21168,0.0353 0.21166,0.0353 0.21168,0.0706 0.17639,0.0706 0.17639,0.10583 0.17638,0.1411 0.1411,0.14112 0.14112,0.17639 0.10583,0.17639 0.0706,0.21166 0.0706,0.17638 0.0353,0.21168 0.0353,0.21166 -0.0353,0.21168" style="fill:none;fill-opacity:1;stroke:#000;stroke-width:.264583;stroke-opacity:1" id="path27"/><path d="m 163.29937,135.8245 v 0.21168 l -0.0353,0.21166 -0.0706,0.21166 -0.10583,0.17639 -0.10583,0.17639 -0.10583,0.17638 -0.17639,0.14112 -0.14112,0.14112 -0.17639,0.10583 -0.21165,0.0706 -0.21168,0.0705 -0.21166,0.0353 -0.21166,0.0353 -0.17639,-0.0353 -0.21168,-0.0353 -0.21166,-0.0705 -0.21168,-0.0706 -0.17639,-0.10583 -0.14109,-0.14112 -0.17639,-0.14112 -0.10583,-0.17638 -0.10585,-0.17639 -0.10583,-0.17639 -0.0706,-0.21166 -0.0353,-0.21166 v -0.21168 -0.21166 l 0.0353,-0.21168 0.0706,-0.17638 0.10583,-0.21166 0.10585,-0.17639 0.10583,-0.17639 0.17639,-0.14112 0.14109,-0.1411 0.17639,-0.10583 0.21168,-0.0706 0.21166,-0.0706 0.21168,-0.0353 0.17639,-0.0353 0.21166,0.0353 0.21166,0.0353 0.21168,0.0706 0.21165,0.0706 0.17639,0.10583 0.14112,0.1411 0.17639,0.14112 0.10583,0.17639 0.10583,0.17639 0.10583,0.21166 0.0706,0.17638 0.0353,0.21168 v 0.21166" style="fill:none;fill-opacity:1;stroke:#000;stroke-width:.264583;stroke-opacity:1" id="path28"/><use id="use29" x="0" y="0" transform="translate(-0.74835462,-22.076463)" xlink:href="#path138" style="fill:none;stroke:#000;stroke-opacity:1"/><use id="use30" x="0" y="0" transform="translate(-0.74835462,-22.076463)" xlink:href="#path139" style="fill:none;stroke:#000;stroke-opacity:1"/><path d="m 125.35013,131.00533 -0.0706,-0.21168 -0.0706,-0.21166 -0.10583,-0.17639 -0.1411,-0.21165 -0.14112,-0.14112 -0.17639,-0.17639 -0.17639,-0.10583 -0.21165,-0.10583 -0.21168,-0.10585 -0.21166,-0.0705 -0.21168,-0.0353 h -0.21166 -25.505827 v -2.01084 h -4.51555 l -0.17639,0.0353 -0.17639,0.0353 -0.14112,0.0706 -0.14112,0.10583 -0.1411,0.10583 -0.0706,0.14112 -0.10583,0.17639 -0.0353,0.17639 v 0.17639 14.00528 0.1411 l 0.0353,0.17639 0.10583,0.17638 0.0706,0.14112 0.1411,0.10583 0.14112,0.10583 0.14112,0.0706 0.17639,0.0353 0.17639,0.0353 h 4.51555 v -2.01084 h 25.505827 0.21166 l 0.21168,-0.0353 0.21166,-0.0706 0.21168,-0.0705 0.21165,-0.1411 0.17639,-0.10585 0.17639,-0.1411 0.14112,-0.17639 0.1411,-0.17639 0.10583,-0.21168 0.0706,-0.21166 0.0706,-0.21165 0.0353,-0.21168 v -0.24695 -7.97277 -0.24695 l -0.0353,-0.21166" style="fill:none;fill-opacity:1;stroke:#000;stroke-width:.264583;stroke-opacity:1" id="use31"/><use id="use32" x="0" y="0" transform="translate(-41.159507,-0.37417734)" xlink:href="#path27" style="fill:none;stroke:#000;stroke-opacity:1"/><use id="use33" x="0" y="0" transform="translate(-41.159507,-0.37417734)" xlink:href="#path28" style="fill:none;stroke:#000;stroke-opacity:1"/><path d="m 124.60178,108.92887 -0.0706,-0.21168 -0.0706,-0.21166 -0.10583,-0.17639 -0.1411,-0.21165 -0.14112,-0.14112 -0.17639,-0.17639 -0.17639,-0.10583 -0.21165,-0.10583 -0.21168,-0.10585 -0.21166,-0.0705 -0.21168,-0.0353 h -0.21166 -25.505832 v -2.01084 h -4.51555 l -0.17639,0.0353 -0.17639,0.0353 -0.14112,0.0706 -0.14112,0.10583 -0.1411,0.10583 -0.0706,0.14112 -0.10583,0.17639 -0.0353,0.17639 v 0.17639 14.00528 0.1411 l 0.0353,0.17639 0.10583,0.17638 0.0706,0.14112 0.1411,0.10583 0.14112,0.10583 0.14112,0.0706 0.17639,0.0353 0.17639,0.0353 h 4.51555 v -2.01084 h 25.505832 0.21166 l 0.21168,-0.0353 0.21166,-0.0706 0.21168,-0.0705 0.21165,-0.1411 0.17639,-0.10585 0.17639,-0.1411 0.14112,-0.17639 0.1411,-0.17639 0.10583,-0.21168 0.0706,-0.21166 0.0706,-0.21165 0.0353,-0.21168 v -0.24695 -7.97277 -0.24695 l -0.0353,-0.21166" style="fill:none;fill-opacity:1;stroke:#000;stroke-width:.264583;stroke-opacity:1" id="use34"/><use id="use35" x="0" y="0" transform="translate(-41.159507,-0.37417734)" xlink:href="#use29" style="fill:none;stroke:#000;stroke-opacity:1"/><use id="use36" x="0" y="0" transform="translate(-41.159507,-0.37417734)" xlink:href="#use30" style="fill:none;stroke:#000;stroke-opacity:1"/></svg>